<?xml version="1.0" standalone="no"?>
<!DOCTYPE svg PUBLIC "-//W3C//DTD SVG 1.1//EN" "http://www.w3.org/Graphics/SVG/1.1/DTD/svg11.dtd">
<svg xmlns="http://www.w3.org/2000/svg" version="1.1" xmlns:xlink="http://www.w3.org/1999/xlink" class="railroad-diagram" width="617" height="152" >
<g transform="translate(.5 .5)" >
<path d="M 20 81 v 20 m 10 -20 v 20 m -10 -10 h 20.5" >
</path>
<path d="M40 91h10" >
</path>
<g >
<path d="M50 91h0" >
</path>
<path d="M158 91h0" >
</path>
<text x="104" y="96" class="comment" >
manage an Atom</text>
</g>
<path d="M158 91h10" >
</path>
<g >
<path d="M168 91h0" >
</path>
<path d="M576 91h0" >
</path>
<path d="M168 91a10 10 0 0 0 10 -10v-10a10 10 0 0 1 10 -10" >
</path>
<g >
<path d="M188 61h30" >
</path>
<path d="M526 61h30" >
</path>
<path d="M218 61h10" >
</path>
<g >
<path d="M228 61h0" >
</path>
<path d="M296 61h0" >
</path>
<rect x="228" y="50" width="68" height="22" rx="10" ry="10" >
</rect>
<text x="262" y="65" >
source</text>
</g>
<path d="M296 61h10" >
</path>
<g >
<path d="M306 61h0" >
</path>
<path d="M526 61h0" >
</path>
<g >
<path d="M306 61h0" >
</path>
<path d="M454 61h0" >
</path>
<path d="M306 61a10 10 0 0 0 10 -10v-10a10 10 0 0 1 10 -10" >
</path>
<g >
<path d="M326 31h20" >
</path>
<path d="M414 31h20" >
</path>
<rect x="346" y="20" width="68" height="22" rx="10" ry="10" >
</rect>
<text x="380" y="35" >
random</text>
</g>
<path d="M434 31a10 10 0 0 1 10 10v10a10 10 0 0 0 10 10" >
</path>
<path d="M306 61h20" >
</path>
<g >
<path d="M326 61h0" >
</path>
<path d="M434 61h0" >
</path>
<rect x="326" y="50" width="108" height="22" rx="10" ry="10" >
</rect>
<text x="380" y="65" >
user typing</text>
</g>
<path d="M434 61h20" >
</path>
</g>
<path d="M454 61h10" >
</path>
<g >
<path d="M464 61h0" >
</path>
<path d="M516 61h0" >
</path>
<rect x="464" y="50" width="52" height="22" rx="10" ry="10" >
</rect>
<text x="490" y="65" >
push</text>
</g>
<path d="M516 61h10" >
</path>
</g>
</g>
<path d="M556 61a10 10 0 0 1 10 10v10a10 10 0 0 0 10 10" >
</path>
<path d="M168 91h20" >
</path>
<g >
<path d="M188 91h0" >
</path>
<path d="M556 91h0" >
</path>
<path d="M188 91h10" >
</path>
<g >
<path d="M198 91h0" >
</path>
<path d="M282 91h0" >
</path>
<rect x="198" y="80" width="84" height="22" rx="10" ry="10" >
</rect>
<text x="240" y="95" >
operator</text>
</g>
<path d="M282 91h10" >
</path>
<g >
<path d="M292 91h0" >
</path>
<path d="M556 91h0" >
</path>
<path d="M292 91h10" >
</path>
<g >
<path d="M302 91h0" >
</path>
<path d="M354 91h0" >
</path>
<rect x="302" y="80" width="52" height="22" rx="10" ry="10" >
</rect>
<text x="328" y="95" >
pull</text>
</g>
<path d="M354 91h10" >
</path>
<path d="M364 91h10" >
</path>
<g >
<path d="M374 91h0" >
</path>
<path d="M474 91h0" >
</path>
<rect x="374" y="80" width="100" height="22" rx="10" ry="10" >
</rect>
<text x="424" y="95" >
treat data</text>
</g>
<path d="M474 91h10" >
</path>
<path d="M484 91h10" >
</path>
<g >
<path d="M494 91h0" >
</path>
<path d="M546 91h0" >
</path>
<rect x="494" y="80" width="52" height="22" rx="10" ry="10" >
</rect>
<text x="520" y="95" >
push</text>
</g>
<path d="M546 91h10" >
</path>
</g>
</g>
<path d="M556 91h20" >
</path>
<path d="M168 91a10 10 0 0 1 10 10v10a10 10 0 0 0 10 10" >
</path>
<g >
<path d="M188 121h36" >
</path>
<path d="M520 121h36" >
</path>
<path d="M224 121h10" >
</path>
<g >
<path d="M234 121h0" >
</path>
<path d="M318 121h0" >
</path>
<rect x="234" y="110" width="84" height="22" rx="10" ry="10" >
</rect>
<text x="276" y="125" >
dead-end</text>
</g>
<path d="M318 121h10" >
</path>
<g >
<path d="M328 121h0" >
</path>
<path d="M520 121h0" >
</path>
<path d="M328 121h10" >
</path>
<g >
<path d="M338 121h0" >
</path>
<path d="M390 121h0" >
</path>
<rect x="338" y="110" width="52" height="22" rx="10" ry="10" >
</rect>
<text x="364" y="125" >
pull</text>
</g>
<path d="M390 121h10" >
</path>
<path d="M400 121h10" >
</path>
<g >
<path d="M410 121h0" >
</path>
<path d="M510 121h0" >
</path>
<rect x="410" y="110" width="100" height="22" rx="10" ry="10" >
</rect>
<text x="460" y="125" >
treat data</text>
</g>
<path d="M510 121h10" >
</path>
</g>
</g>
<path d="M556 121a10 10 0 0 0 10 -10v-10a10 10 0 0 1 10 -10" >
</path>
</g>
<path d="M 576 91 h 20 m -10 -10 v 20 m 10 -20 v 20" >
</path>
</g>

	<style type="text/css" ><![CDATA[
		svg.railroad-diagram {
			background-color: hsl(30,20%,95%);
		}
		svg.railroad-diagram path {
			stroke-width: 3;
			stroke: black;
			fill: rgba(0,0,0,0);
		}
		svg.railroad-diagram text {
			font: bold 14px monospace;
			text-anchor: middle;
		}
		svg.railroad-diagram text.label {
			text-anchor: start;
		}
		svg.railroad-diagram text.comment {
			font: italic 12px monospace;
		}
		svg.railroad-diagram rect {
			stroke-width: 3;
			stroke: black;
			fill: hsl(120,100%,90%);
		}
	]]></style>
</svg>
