<?xml version="1.0" standalone="no"?>
<!DOCTYPE svg PUBLIC "-//W3C//DTD SVG 1.1//EN" "http://www.w3.org/Graphics/SVG/1.1/DTD/svg11.dtd">
<svg xmlns="http://www.w3.org/2000/svg" version="1.1" xmlns:xlink="http://www.w3.org/1999/xlink" class="railroad-diagram" width="263" height="122" >
<g transform="translate(.5 .5)" >
<path d="M 20 51 v 20 m 10 -20 v 20 m -10 -10 h 20.5" >
</path>
<path d="M40 61h10" >
</path>
<g >
<path d="M50 61h0" >
</path>
<path d="M88 61h0" >
</path>
<text x="69" y="66" class="comment" >
Atom</text>
</g>
<path d="M88 61h10" >
</path>
<g >
<path d="M98 61h0" >
</path>
<path d="M222 61h0" >
</path>
<path d="M98 61a10 10 0 0 0 10 -10v-10a10 10 0 0 1 10 -10" >
</path>
<g >
<path d="M118 31h8" >
</path>
<path d="M194 31h8" >
</path>
<rect x="126" y="20" width="68" height="22" rx="10" ry="10" >
</rect>
<text x="160" y="35" >
source</text>
</g>
<path d="M202 31a10 10 0 0 1 10 10v10a10 10 0 0 0 10 10" >
</path>
<path d="M98 61h20" >
</path>
<g >
<path d="M118 61h0" >
</path>
<path d="M202 61h0" >
</path>
<rect x="118" y="50" width="84" height="22" rx="10" ry="10" >
</rect>
<text x="160" y="65" >
operator</text>
</g>
<path d="M202 61h20" >
</path>
<path d="M98 61a10 10 0 0 1 10 10v10a10 10 0 0 0 10 10" >
</path>
<g >
<path d="M118 91h0" >
</path>
<path d="M202 91h0" >
</path>
<rect x="118" y="80" width="84" height="22" rx="10" ry="10" >
</rect>
<text x="160" y="95" >
dead-end</text>
</g>
<path d="M202 91a10 10 0 0 0 10 -10v-10a10 10 0 0 1 10 -10" >
</path>
</g>
<path d="M 222 61 h 20 m -10 -10 v 20 m 10 -20 v 20" >
</path>
</g>

	<style type="text/css" ><![CDATA[
		svg.railroad-diagram {
			background-color: hsl(30,20%,95%);
		}
		svg.railroad-diagram path {
			stroke-width: 3;
			stroke: black;
			fill: rgba(0,0,0,0);
		}
		svg.railroad-diagram text {
			font: bold 14px monospace;
			text-anchor: middle;
		}
		svg.railroad-diagram text.label {
			text-anchor: start;
		}
		svg.railroad-diagram text.comment {
			font: italic 12px monospace;
		}
		svg.railroad-diagram rect {
			stroke-width: 3;
			stroke: black;
			fill: hsl(120,100%,90%);
		}
	]]></style>
</svg>
