<?xml version="1.0" standalone="no"?>
<!DOCTYPE svg PUBLIC "-//W3C//DTD SVG 1.1//EN" "http://www.w3.org/Graphics/SVG/1.1/DTD/svg11.dtd">
<svg xmlns="http://www.w3.org/2000/svg" version="1.1" xmlns:xlink="http://www.w3.org/1999/xlink" class="railroad-diagram" width="1087" height="92" >
<g transform="translate(.5 .5)" >
<path d="M 20 21 v 20 m 10 -20 v 20 m -10 -10 h 20.5" >
</path>
<path d="M40 31h10" >
</path>
<g >
<path d="M50 31h0" >
</path>
<path d="M228 31h0" >
</path>
<text x="139" y="36" class="comment" >
refresh synapses process</text>
</g>
<path d="M228 31h10" >
</path>
<g >
<path d="M238 31h0" >
</path>
<path d="M1046 31h0" >
</path>
<path d="M238 31h20" >
</path>
<g >
<path d="M258 31h264" >
</path>
<path d="M762 31h264" >
</path>
<path d="M522 31h10" >
</path>
<g >
<path d="M532 31h0" >
</path>
<path d="M592 31h0" >
</path>
<rect x="532" y="20" width="60" height="22" >
</rect>
<text x="562" y="35" >
empty</text>
</g>
<path d="M592 31h10" >
</path>
<path d="M602 31h10" >
</path>
<g >
<path d="M612 31h0" >
</path>
<path d="M752 31h0" >
</path>
<rect x="612" y="20" width="140" height="22" >
</rect>
<text x="682" y="35" >
function choice</text>
</g>
<path d="M752 31h10" >
</path>
</g>
<path d="M1026 31h20" >
</path>
<path d="M238 31a10 10 0 0 1 10 10v10a10 10 0 0 0 10 10" >
</path>
<g >
<path d="M258 61h0" >
</path>
<path d="M1026 61h0" >
</path>
<path d="M258 61h10" >
</path>
<g >
<path d="M268 61h0" >
</path>
<path d="M336 61h0" >
</path>
<rect x="268" y="50" width="68" height="22" >
</rect>
<text x="302" y="65" >
key ID</text>
</g>
<path d="M336 61h10" >
</path>
<path d="M346 61h10" >
</path>
<g >
<path d="M356 61h0" >
</path>
<path d="M632 61h0" >
</path>
<rect x="356" y="50" width="276" height="22" >
</rect>
<text x="494" y="65" >
reference stand in previous atom</text>
</g>
<path d="M632 61h10" >
</path>
<path d="M642 61h10" >
</path>
<g >
<path d="M652 61h0" >
</path>
<path d="M856 61h0" >
</path>
<rect x="652" y="50" width="204" height="22" >
</rect>
<text x="754" y="65" >
push from previous atom</text>
</g>
<path d="M856 61h10" >
</path>
<path d="M866 61h10" >
</path>
<g >
<path d="M876 61h0" >
</path>
<path d="M1016 61h0" >
</path>
<rect x="876" y="50" width="140" height="22" >
</rect>
<text x="946" y="65" >
recieve in pool</text>
</g>
<path d="M1016 61h10" >
</path>
</g>
<path d="M1026 61a10 10 0 0 0 10 -10v-10a10 10 0 0 1 10 -10" >
</path>
</g>
<path d="M 1046 31 h 20 m -10 -10 v 20 m 10 -20 v 20" >
</path>
</g>

	<style type="text/css" ><![CDATA[
		svg.railroad-diagram {
			background-color: hsl(30,20%,95%);
		}
		svg.railroad-diagram path {
			stroke-width: 3;
			stroke: black;
			fill: rgba(0,0,0,0);
		}
		svg.railroad-diagram text {
			font: bold 14px monospace;
			text-anchor: middle;
		}
		svg.railroad-diagram text.label {
			text-anchor: start;
		}
		svg.railroad-diagram text.comment {
			font: italic 12px monospace;
		}
		svg.railroad-diagram rect {
			stroke-width: 3;
			stroke: black;
			fill: hsl(120,100%,90%);
		}
	]]></style>
<!-- 
Diagram(
	Comment('refresh synapses process'),
	Choice(0, 
		Sequence(NonTerminal('empty'), NonTerminal('function choice')), 
		Sequence(NonTerminal('key ID'), NonTerminal('reference stand in previous atom'), NonTerminal('push from previous atom'), NonTerminal('recieve in pool'))
))
 --></svg>
