<?xml version="1.0" standalone="no"?>
<!DOCTYPE svg PUBLIC "-//W3C//DTD SVG 1.1//EN" "http://www.w3.org/Graphics/SVG/1.1/DTD/svg11.dtd">
<svg xmlns="http://www.w3.org/2000/svg" version="1.1" xmlns:xlink="http://www.w3.org/1999/xlink" class="railroad-diagram" width="448" height="170" >
<g transform="translate(.5 .5)" >
<path d="M 20 31 v 20 m 10 -20 v 20 m -10 -10 h 20.5" >
</path>
<path d="M40 41h10" >
</path>
<g >
<path d="M50 41h0" >
</path>
<path d="M67 41h0" >
</path>
<text x="58.5" y="46" class="comment" >
{</text>
</g>
<path d="M67 41h10" >
</path>
<g >
<path d="M77 41h0" >
</path>
<path d="M370 41h0" >
</path>
<path d="M77 41a10 10 0 0 0 10 -10v0a10 10 0 0 1 10 -10" >
</path>
<g >
<path d="M97 21h253" >
</path>
</g>
<path d="M350 21a10 10 0 0 1 10 10v0a10 10 0 0 0 10 10" >
</path>
<path d="M77 41h20" >
</path>
<g >
<path d="M97 41h0" >
</path>
<path d="M350 41h0" >
</path>
<path d="M97 41h10" >
</path>
<g >
<path d="M107 41h0" >
</path>
<path d="M340 41h0" >
</path>
<path d="M107 41h10" >
</path>
<g >
<path d="M117 41h0" >
</path>
<path d="M169 41h0" >
</path>
<rect x="117" y="30" width="52" height="22" rx="10" ry="10" >
</rect>
<text x="143" y="45" >
$key</text>
</g>
<path d="M169 41h10" >
</path>
<path d="M179 41h10" >
</path>
<g >
<path d="M189 41h0" >
</path>
<path d="M206 41h0" >
</path>
<text x="197.5" y="46" class="comment" >
:</text>
</g>
<path d="M206 41h10" >
</path>
<g >
<path d="M216 41h0" >
</path>
<path d="M340 41h0" >
</path>
<path d="M216 41h20" >
</path>
<g >
<path d="M236 41h16" >
</path>
<path d="M304 41h16" >
</path>
<rect x="252" y="30" width="52" height="22" rx="10" ry="10" >
</rect>
<text x="278" y="45" >
null</text>
</g>
<path d="M320 41h20" >
</path>
<path d="M216 41a10 10 0 0 1 10 10v10a10 10 0 0 0 10 10" >
</path>
<g >
<path d="M236 71h0" >
</path>
<path d="M320 71h0" >
</path>
<rect x="236" y="60" width="84" height="22" rx="10" ry="10" >
</rect>
<text x="278" y="75" >
$boolean</text>
</g>
<path d="M320 71a10 10 0 0 0 10 -10v-10a10 10 0 0 1 10 -10" >
</path>
<path d="M216 41a10 10 0 0 1 10 10v40a10 10 0 0 0 10 10" >
</path>
<g >
<path d="M236 101h4" >
</path>
<path d="M316 101h4" >
</path>
<rect x="240" y="90" width="76" height="22" rx="10" ry="10" >
</rect>
<text x="278" y="105" >
$number</text>
</g>
<path d="M320 101a10 10 0 0 0 10 -10v-40a10 10 0 0 1 10 -10" >
</path>
<path d="M216 41a10 10 0 0 1 10 10v70a10 10 0 0 0 10 10" >
</path>
<g >
<path d="M236 131h4" >
</path>
<path d="M316 131h4" >
</path>
<rect x="240" y="120" width="76" height="22" rx="10" ry="10" >
</rect>
<text x="278" y="135" >
$object</text>
</g>
<path d="M320 131a10 10 0 0 0 10 -10v-70a10 10 0 0 1 10 -10" >
</path>
</g>
</g>
<path d="M340 41h10" >
</path>
<path d="M107 41a10 10 0 0 0 -10 10v89a10 10 0 0 0 10 10" >
</path>
<g >
<path d="M107 150h233" >
</path>
</g>
<path d="M340 150a10 10 0 0 0 10 -10v-89a10 10 0 0 0 -10 -10" >
</path>
</g>
<path d="M350 41h20" >
</path>
</g>
<path d="M370 41h10" >
</path>
<g >
<path d="M380 41h0" >
</path>
<path d="M397 41h0" >
</path>
<text x="388.5" y="46" class="comment" >
}</text>
</g>
<path d="M397 41h10" >
</path>
<path d="M 407 41 h 20 m -10 -10 v 20 m 10 -20 v 20" >
</path>
</g>

	<style type="text/css" ><![CDATA[
		svg.railroad-diagram {
			background-color: hsl(30,20%,95%);
		}
		svg.railroad-diagram path {
			stroke-width: 3;
			stroke: black;
			fill: rgba(0,0,0,0);
		}
		svg.railroad-diagram text {
			font: bold 14px monospace;
			text-anchor: middle;
		}
		svg.railroad-diagram text.label {
			text-anchor: start;
		}
		svg.railroad-diagram text.comment {
			font: italic 12px monospace;
		}
		svg.railroad-diagram rect {
			stroke-width: 3;
			stroke: black;
			fill: hsl(120,100%,90%);
		}
	]]></style>
<!-- 
Diagram(Comment('{'), ZeroOrMore(Sequence('$key', Comment(':'), Choice(0, Terminal('null'), Terminal('$boolean'), Terminal('$number'), Terminal('$object')))), Comment('}'))
 --></svg>
